<svg width="657.9px" height="121.4px" xmlns="http://www.w3.org/2000/svg" viewBox="-78.94687499999998 14.300000000000004 657.89375 121.39999999999999" style="background: rgba(0, 0, 0, 0)" preserveAspectRatio="xMidYMid"><defs><linearGradient id="editing-gradient-gradient" x1="0" x2="1" y1="0.5" y2="0.5" gradientUnits="objectBoundingBox"><stop offset="0" stop-color="#51b3e6"></stop><stop offset="1" stop-color="#ff00ff"></stop></linearGradient></defs><g><g transform="matrix(1.3,0,0,1.2,-51.2,118.3)"><path d="M 63 -5 L 49 -5 L 57.2 -47.3 L 71.2 -47.3 L 63 -5 Z M 118.7 -3.7 L 118.7 -3.7 L 118.7 -3.7 Q 111 -3.7 111 -9.8 L 111 -9.8 L 111 -9.8 Q 111 -12.4 112.1 -17.5 L 112.1 -17.5 L 112.1 -17.5 Q 113.2 -22.6 113.6 -24.6 L 113.6 -24.6 L 113.6 -24.6 Q 114.5 -29.3 114.5 -30.8 L 114.5 -30.8 L 114.5 -30.8 Q 114.5 -34 112.1 -34 L 112.1 -34 L 112.1 -34 Q 110.5 -34 108.9 -31.8 L 108.9 -31.8 L 108.9 -31.8 Q 107.4 -29.6 106.7 -25.2 L 106.7 -25.2 L 102.7 -5 L 90.2 -3.7 L 93.7 -21.2 L 93.7 -21.2 Q 94.3 -24 94.8 -27.3 L 94.8 -27.3 L 94.8 -27.3 Q 95.3 -30.6 95.3 -31.1 L 95.3 -31.1 L 95.3 -31.1 Q 95.3 -34 93.1 -34 L 93.1 -34 L 93.1 -34 Q 91.7 -34 90.1 -31.8 L 90.1 -31.8 L 90.1 -31.8 Q 88.5 -29.7 87.6 -25.2 L 87.6 -25.2 L 83.7 -5 L 71 -3.7 L 77.8 -37.7 L 88.2 -38.9 L 87.1 -32.5 L 87.1 -32.5 Q 88.8 -35.9 91.8 -37.4 L 91.8 -37.4 L 91.8 -37.4 Q 94.9 -38.9 99.7 -38.9 L 99.7 -38.9 L 99.7 -38.9 Q 102.5 -38.9 104.3 -37.6 L 104.3 -37.6 L 104.3 -37.6 Q 106.1 -36.3 106.6 -34.1 L 106.6 -34.1 L 106.6 -34.1 Q 107.7 -36.3 110.5 -37.6 L 110.5 -37.6 L 110.5 -37.6 Q 113.3 -38.9 116.7 -38.9 L 116.7 -38.9 L 116.7 -38.9 Q 120.1 -38.9 121.8 -38.2 L 121.8 -38.2 L 121.8 -38.2 Q 123.5 -37.5 124.5 -36.3 L 124.5 -36.3 L 124.5 -36.3 Q 126.3 -34 126.3 -29.9 L 126.3 -29.9 L 126.3 -29.9 Q 126.3 -25.9 124.5 -17.5 L 124.5 -17.5 L 124.5 -17.5 Q 123.7 -13.4 123.7 -11.9 L 123.7 -11.9 L 123.7 -11.9 Q 123.7 -10.4 124.5 -9.5 L 124.5 -9.5 L 124.5 -9.5 Q 125.4 -8.6 126.7 -8.5 L 126.7 -8.5 L 126.7 -8.5 Q 126 -6.3 123.8 -5 L 123.8 -5 L 123.8 -5 Q 121.6 -3.7 118.7 -3.7 Z M 134.4 -6.9 L 134.4 -6.9 L 134.4 -6.9 Q 132.9 -8.6 132.2 -11.2 L 132.2 -11.2 L 132.2 -11.2 Q 131.5 -13.9 131.5 -18.1 L 131.5 -18.1 L 131.5 -18.1 Q 131.5 -22.4 133 -26.3 L 133 -26.3 L 133 -26.3 Q 134.5 -30.2 137.2 -33.1 L 137.2 -33.1 L 137.2 -33.1 Q 142.7 -38.9 151.7 -38.9 L 151.7 -38.9 L 151.7 -38.9 Q 155 -38.9 157.4 -37.9 L 157.4 -37.9 L 168.3 -38.9 L 163.6 -14 L 163.6 -14 Q 163.4 -13.2 163.4 -11.8 L 163.4 -11.8 L 163.4 -11.8 Q 163.4 -10.4 164.3 -9.5 L 164.3 -9.5 L 164.3 -9.5 Q 165.1 -8.6 166.4 -8.5 L 166.4 -8.5 L 166.4 -8.5 Q 165.8 -6.3 163.4 -5 L 163.4 -5 L 163.4 -5 Q 161.1 -3.7 158.5 -3.7 L 158.5 -3.7 L 158.5 -3.7 Q 155.8 -3.7 154.1 -4.7 L 154.1 -4.7 L 154.1 -4.7 Q 152.3 -5.7 151.8 -7.4 L 151.8 -7.4 L 151.8 -7.4 Q 150.8 -5.8 148.6 -4.8 L 148.6 -4.8 L 148.6 -4.8 Q 146.4 -3.7 143.5 -3.7 L 143.5 -3.7 L 143.5 -3.7 Q 140.6 -3.7 138.2 -4.5 L 138.2 -4.5 L 138.2 -4.5 Q 135.9 -5.3 134.4 -6.9 Z M 147.9 -32.9 L 147.9 -32.9 L 147.9 -32.9 Q 147.1 -31.8 146.5 -29.8 L 146.5 -29.8 L 146.5 -29.8 Q 145.9 -27.9 144.8 -22.7 L 144.8 -22.7 L 144.8 -22.7 Q 143.7 -17.4 143.7 -13.7 L 143.7 -13.7 L 143.7 -13.7 Q 143.7 -10 144.3 -8.9 L 144.3 -8.9 L 144.3 -8.9 Q 144.9 -7.8 145.9 -7.8 L 145.9 -7.8 L 145.9 -7.8 Q 148 -7.8 149.5 -9.8 L 149.5 -9.8 L 149.5 -9.8 Q 151 -11.7 151.6 -15.2 L 151.6 -15.2 L 154.9 -34 L 154.9 -34 Q 153.6 -35.1 152 -35.1 L 152 -35.1 L 152 -35.1 Q 150.5 -35.1 149.5 -34.6 L 149.5 -34.6 L 149.5 -34.6 Q 148.6 -34.1 147.9 -32.9 Z M 176.1 -31.8 L 176.1 -31.8 L 176.1 -31.8 Q 178.2 -34.8 181.5 -36.9 L 181.5 -36.9 L 181.5 -36.9 Q 184.8 -38.9 188.9 -38.9 L 188.9 -38.9 L 188.9 -38.9 Q 192.9 -38.9 194.8 -37.7 L 194.8 -37.7 L 207.4 -38.9 L 203 -14.4 L 203 -14.4 Q 200.8 -1.8 196 3.1 L 196 3.1 L 196 3.1 Q 191.5 7.8 182.7 7.8 L 182.7 7.8 L 182.7 7.8 Q 175.9 7.8 172.1 5.7 L 172.1 5.7 L 172.1 5.7 Q 168.3 3.6 168.3 0 L 168.3 0 L 168.3 0 Q 168.3 -2.6 170.2 -4.1 L 170.2 -4.1 L 170.2 -4.1 Q 172.2 -5.6 175.3 -5.6 L 175.3 -5.6 L 175.3 -5.6 Q 178 -5.6 180 -4.4 L 180 -4.4 L 180 -4.4 Q 181.3 -3.7 181.8 -2.8 L 181.8 -2.8 L 181.8 -2.8 Q 180.4 -1.6 180.4 0.5 L 180.4 0.5 L 180.4 0.5 Q 180.4 3.3 182.9 3.3 L 182.9 3.3 L 182.9 3.3 Q 187.2 3.3 189.6 -6.8 L 189.6 -6.8 L 189.6 -6.8 Q 190.3 -9.6 190.9 -12.3 L 190.9 -12.3 L 190.9 -12.3 Q 188 -8.8 181.5 -8.8 L 181.5 -8.8 L 181.5 -8.8 Q 177 -8.8 174.3 -11 L 174.3 -11 L 174.3 -11 Q 171.7 -13.2 171.7 -18.3 L 171.7 -18.3 L 171.7 -18.3 Q 171.7 -21.5 172.8 -25.1 L 172.8 -25.1 L 172.8 -25.1 Q 173.9 -28.7 176.1 -31.8 Z M 184.4 -18.1 L 184.4 -18.1 L 184.4 -18.1 Q 184.4 -13.7 186.6 -13.7 L 186.6 -13.7 L 186.6 -13.7 Q 188.2 -13.7 189.6 -15.4 L 189.6 -15.4 L 189.6 -15.4 Q 190.8 -16.7 191.2 -18.7 L 191.2 -18.7 L 194.5 -35.2 L 194.5 -35.2 Q 194.2 -35.2 193.9 -35.4 L 193.9 -35.4 L 193.9 -35.4 Q 193.2 -35.6 192.4 -35.6 L 192.4 -35.6 L 192.4 -35.6 Q 188.5 -35.6 186.2 -29.2 L 186.2 -29.2 L 186.2 -29.2 Q 184.4 -24.2 184.4 -18.1 Z M 235.8 -15.8 L 235.8 -15.8 L 235.8 -15.8 Q 237.4 -14.8 237.4 -12.4 L 237.4 -12.4 L 237.4 -12.4 Q 237.4 -10 236.2 -8.4 L 236.2 -8.4 L 236.2 -8.4 Q 234.9 -6.9 233 -5.9 L 233 -5.9 L 233 -5.9 Q 228.9 -3.7 224.5 -3.7 L 224.5 -3.7 L 224.5 -3.7 Q 220 -3.7 217.4 -4.7 L 217.4 -4.7 L 217.4 -4.7 Q 214.9 -5.7 213.1 -7.5 L 213.1 -7.5 L 213.1 -7.5 Q 209.7 -10.8 209.7 -17.1 L 209.7 -17.1 L 209.7 -17.1 Q 209.7 -26.7 215 -32.6 L 215 -32.6 L 215 -32.6 Q 220.6 -38.9 230.4 -38.9 L 230.4 -38.9 L 230.4 -38.9 Q 236.5 -38.9 239.5 -36.4 L 239.5 -36.4 L 239.5 -36.4 Q 241.7 -34.5 241.7 -31.3 L 241.7 -31.3 L 241.7 -31.3 Q 241.7 -20.1 222.3 -20.1 L 222.3 -20.1 L 222.3 -20.1 Q 222 -18.4 222 -17 L 222 -17 L 222 -17 Q 222 -14 223.3 -12.9 L 223.3 -12.9 L 223.3 -12.9 Q 224.6 -11.8 227.1 -11.8 L 227.1 -11.8 L 227.1 -11.8 Q 229.5 -11.8 232.1 -12.9 L 232.1 -12.9 L 232.1 -12.9 Q 234.7 -14 235.8 -15.8 Z M 222.7 -22.8 L 222.7 -22.8 L 222.7 -22.8 Q 227.3 -22.8 229.9 -25.6 L 229.9 -25.6 L 229.9 -25.6 Q 232.5 -28.3 232.5 -32.6 L 232.5 -32.6 L 232.5 -32.6 Q 232.5 -34.1 232 -34.9 L 232 -34.9 L 232 -34.9 Q 231.4 -35.7 230.3 -35.7 L 230.3 -35.7 L 230.3 -35.7 Q 229.3 -35.7 228.3 -35.3 L 228.3 -35.3 L 228.3 -35.3 Q 227.4 -34.8 226.4 -33.4 L 226.4 -33.4 L 226.4 -33.4 Q 224.1 -30.2 222.7 -22.8 Z M 263 -27.5 L 263 -27.5 L 263 -27.5 Q 263.9 -29.9 263.9 -31.9 L 263.9 -31.9 L 263.9 -31.9 Q 263.9 -35.7 260.9 -35.7 L 260.9 -35.7 L 260.9 -35.7 Q 259.3 -35.7 258 -34.2 L 258 -34.2 L 258 -34.2 Q 256.6 -32.8 256.6 -31 L 256.6 -31 L 256.6 -31 Q 256.6 -29.7 257.7 -28.7 L 257.7 -28.7 L 257.7 -28.7 Q 259.1 -27.3 262.9 -25 L 262.9 -25 L 262.9 -25 Q 266.7 -22.7 268.1 -20.8 L 268.1 -20.8 L 268.1 -20.8 Q 269.6 -18.9 269.6 -16.3 L 269.6 -16.3 L 269.6 -16.3 Q 269.6 -13.7 268.3 -11.4 L 268.3 -11.4 L 268.3 -11.4 Q 267.1 -9 264.8 -7.3 L 264.8 -7.3 L 264.8 -7.3 Q 260 -3.7 252.4 -3.7 L 252.4 -3.7 L 252.4 -3.7 Q 248.2 -3.7 245 -5.9 L 245 -5.9 L 245 -5.9 Q 241.8 -8 241.8 -10.5 L 241.8 -10.5 L 241.8 -10.5 Q 241.8 -13 243.6 -14.5 L 243.6 -14.5 L 243.6 -14.5 Q 245.4 -16 248.1 -16 L 248.1 -16 L 248.1 -16 Q 250.8 -16 252.5 -14.9 L 252.5 -14.9 L 252.5 -14.9 Q 251.7 -12.8 251.7 -11.4 L 251.7 -11.4 L 251.7 -11.4 Q 251.7 -7.2 255.2 -7.2 L 255.2 -7.2 L 255.2 -7.2 Q 256.8 -7.2 257.8 -8.2 L 257.8 -8.2 L 257.8 -8.2 Q 258.8 -9.1 258.8 -10.8 L 258.8 -10.8 L 258.8 -10.8 Q 258.8 -14 253.3 -17.5 L 253.3 -17.5 L 253.3 -17.5 Q 248.8 -20.4 247.8 -21.6 L 247.8 -21.6 L 247.8 -21.6 Q 246.1 -23.6 246.1 -26.2 L 246.1 -26.2 L 246.1 -26.2 Q 246.1 -28.8 247.3 -31.2 L 247.3 -31.2 L 247.3 -31.2 Q 248.5 -33.6 250.8 -35.4 L 250.8 -35.4 L 250.8 -35.4 Q 255.4 -38.9 263.6 -38.9 L 263.6 -38.9 L 263.6 -38.9 Q 267.7 -38.9 270.2 -37.3 L 270.2 -37.3 L 270.2 -37.3 Q 272.6 -35.6 272.6 -32.8 L 272.6 -32.8 L 272.6 -32.8 Q 272.6 -30 270.9 -28.4 L 270.9 -28.4 L 270.9 -28.4 Q 269.3 -26.8 266.2 -26.8 L 266.2 -26.8 L 266.2 -26.8 Q 264.1 -26.8 263 -27.5 Z M 314.1 -25.6 L 327 -26.8 L 327 -26.8 Q 322.4 -16.7 322.4 -5 L 322.4 -5 L 322.4 -5 Q 320.7 -3.7 318.2 -3.7 L 318.2 -3.7 L 318.2 -3.7 Q 315.7 -3.7 314.1 -4.9 L 314.1 -4.9 L 314.1 -4.9 Q 312.5 -6.1 312.1 -7.3 L 312.1 -7.3 L 312.1 -7.3 Q 310.5 -5.7 307.9 -4.7 L 307.9 -4.7 L 307.9 -4.7 Q 305.3 -3.7 302.6 -3.7 L 302.6 -3.7 L 302.6 -3.7 Q 299.8 -3.7 297.4 -4.6 L 297.4 -4.6 L 297.4 -4.6 Q 295 -5.5 293.2 -7.5 L 293.2 -7.5 L 293.2 -7.5 Q 289.1 -11.9 289.1 -20.1 L 289.1 -20.1 L 289.1 -20.1 Q 289.1 -32.9 295.9 -40.6 L 295.9 -40.6 L 295.9 -40.6 Q 303 -48.5 315.5 -48.5 L 315.5 -48.5 L 315.5 -48.5 Q 324.1 -48.5 327.2 -44.1 L 327.2 -44.1 L 327.2 -44.1 Q 328.1 -42.7 328.1 -41 L 328.1 -41 L 328.1 -41 Q 328.1 -39.3 327.4 -37.8 L 327.4 -37.8 L 327.4 -37.8 Q 326.7 -36.4 325.5 -35.2 L 325.5 -35.2 L 325.5 -35.2 Q 322.8 -32.7 319.4 -32.7 L 319.4 -32.7 L 319.4 -32.7 Q 318 -32.7 316.7 -33.1 L 316.7 -33.1 L 316.7 -33.1 Q 317 -35 317 -37.3 L 317 -37.3 L 317 -37.3 Q 317 -39.5 316.8 -40.5 L 316.8 -40.5 L 316.8 -40.5 Q 316.7 -41.6 316.3 -42.4 L 316.3 -42.4 L 316.3 -42.4 Q 315.5 -44.1 313.6 -44.1 L 313.6 -44.1 L 313.6 -44.1 Q 311.8 -44.1 309.8 -42.2 L 309.8 -42.2 L 309.8 -42.2 Q 307.8 -40.2 306.2 -37 L 306.2 -37 L 306.2 -37 Q 302.7 -29.9 302.7 -21.2 L 302.7 -21.2 L 302.7 -21.2 Q 302.7 -17.2 304.2 -14.4 L 304.2 -14.4 L 304.2 -14.4 Q 305.9 -11.4 308.8 -11.4 L 308.8 -11.4 L 308.8 -11.4 Q 309.8 -11.4 310.8 -11.9 L 310.8 -11.9 L 310.8 -11.9 Q 311.7 -12.4 312.1 -12.8 L 312.1 -12.8 L 314.1 -25.6 Z M 333 -6.9 L 333 -6.9 L 333 -6.9 Q 331.5 -8.6 330.8 -11.2 L 330.8 -11.2 L 330.8 -11.2 Q 330.1 -13.9 330.1 -18.1 L 330.1 -18.1 L 330.1 -18.1 Q 330.1 -22.4 331.6 -26.3 L 331.6 -26.3 L 331.6 -26.3 Q 333.1 -30.2 335.7 -33.1 L 335.7 -33.1 L 335.7 -33.1 Q 341.3 -38.9 350.3 -38.9 L 350.3 -38.9 L 350.3 -38.9 Q 353.6 -38.9 356 -37.9 L 356 -37.9 L 366.9 -38.9 L 362.2 -14 L 362.2 -14 Q 362 -13.2 362 -11.8 L 362 -11.8 L 362 -11.8 Q 362 -10.4 362.9 -9.5 L 362.9 -9.5 L 362.9 -9.5 Q 363.7 -8.6 365 -8.5 L 365 -8.5 L 365 -8.5 Q 364.4 -6.3 362 -5 L 362 -5 L 362 -5 Q 359.7 -3.7 357.1 -3.7 L 357.1 -3.7 L 357.1 -3.7 Q 354.4 -3.7 352.7 -4.7 L 352.7 -4.7 L 352.7 -4.7 Q 350.9 -5.7 350.4 -7.4 L 350.4 -7.4 L 350.4 -7.4 Q 349.4 -5.8 347.2 -4.8 L 347.2 -4.8 L 347.2 -4.8 Q 345 -3.7 342.1 -3.7 L 342.1 -3.7 L 342.1 -3.7 Q 339.2 -3.7 336.8 -4.5 L 336.8 -4.5 L 336.8 -4.5 Q 334.5 -5.3 333 -6.9 Z M 346.5 -32.9 L 346.5 -32.9 L 346.5 -32.9 Q 345.7 -31.8 345.1 -29.8 L 345.1 -29.8 L 345.1 -29.8 Q 344.5 -27.9 343.4 -22.7 L 343.4 -22.7 L 343.4 -22.7 Q 342.3 -17.4 342.3 -13.7 L 342.3 -13.7 L 342.3 -13.7 Q 342.3 -10 342.9 -8.9 L 342.9 -8.9 L 342.9 -8.9 Q 343.5 -7.8 344.5 -7.8 L 344.5 -7.8 L 344.5 -7.8 Q 346.6 -7.8 348.1 -9.8 L 348.1 -9.8 L 348.1 -9.8 Q 349.6 -11.7 350.1 -15.2 L 350.1 -15.2 L 353.5 -34 L 353.5 -34 Q 352.2 -35.1 350.6 -35.1 L 350.6 -35.1 L 350.6 -35.1 Q 349.1 -35.1 348.1 -34.6 L 348.1 -34.6 L 348.1 -34.6 Q 347.2 -34.1 346.5 -32.9 Z M 385.7 -8.5 L 385.7 -8.5 L 385.7 -8.5 Q 383.7 -3.7 377.3 -3.7 L 377.3 -3.7 L 377.3 -3.7 Q 374.1 -3.7 372.1 -6 L 372.1 -6 L 372.1 -6 Q 370.4 -7.8 370.4 -10 L 370.4 -10 L 370.4 -10 Q 370.4 -14.8 372.7 -25.2 L 372.7 -25.2 L 377.3 -49.8 L 390.3 -51.1 L 384.1 -18.7 L 384.1 -18.7 Q 383 -14 383 -12.3 L 383 -12.3 L 383 -12.3 Q 383 -8.7 385.7 -8.5 Z M 406.4 -8.5 L 406.4 -8.5 L 406.4 -8.5 Q 404.4 -3.7 398.1 -3.7 L 398.1 -3.7 L 398.1 -3.7 Q 394.9 -3.7 392.8 -6 L 392.8 -6 L 392.8 -6 Q 391.2 -7.8 391.2 -10 L 391.2 -10 L 391.2 -10 Q 391.2 -14.8 393.4 -25.2 L 393.4 -25.2 L 398.1 -49.8 L 411.1 -51.1 L 404.9 -18.7 L 404.9 -18.7 Q 403.8 -14 403.8 -12.3 L 403.8 -12.3 L 403.8 -12.3 Q 403.8 -8.7 406.4 -8.5 Z M 437.8 -15.8 L 437.8 -15.8 L 437.8 -15.8 Q 439.4 -14.8 439.4 -12.4 L 439.4 -12.4 L 439.4 -12.4 Q 439.4 -10 438.1 -8.4 L 438.1 -8.4 L 438.1 -8.4 Q 436.9 -6.9 434.9 -5.9 L 434.9 -5.9 L 434.9 -5.9 Q 430.9 -3.7 426.4 -3.7 L 426.4 -3.7 L 426.4 -3.7 Q 422 -3.7 419.4 -4.7 L 419.4 -4.7 L 419.4 -4.7 Q 416.8 -5.7 415.1 -7.5 L 415.1 -7.5 L 415.1 -7.5 Q 411.7 -10.8 411.7 -17.1 L 411.7 -17.1 L 411.7 -17.1 Q 411.7 -26.7 417 -32.6 L 417 -32.6 L 417 -32.6 Q 422.6 -38.9 432.4 -38.9 L 432.4 -38.9 L 432.4 -38.9 Q 438.5 -38.9 441.5 -36.4 L 441.5 -36.4 L 441.5 -36.4 Q 443.7 -34.5 443.7 -31.3 L 443.7 -31.3 L 443.7 -31.3 Q 443.7 -20.1 424.3 -20.1 L 424.3 -20.1 L 424.3 -20.1 Q 424 -18.4 424 -17 L 424 -17 L 424 -17 Q 424 -14 425.3 -12.9 L 425.3 -12.9 L 425.3 -12.9 Q 426.6 -11.8 429.1 -11.8 L 429.1 -11.8 L 429.1 -11.8 Q 431.5 -11.8 434.1 -12.9 L 434.1 -12.9 L 434.1 -12.9 Q 436.7 -14 437.8 -15.8 Z M 424.7 -22.8 L 424.7 -22.8 L 424.7 -22.8 Q 429.3 -22.8 431.9 -25.6 L 431.9 -25.6 L 431.9 -25.6 Q 434.5 -28.3 434.5 -32.6 L 434.5 -32.6 L 434.5 -32.6 Q 434.5 -34.1 434 -34.9 L 434 -34.9 L 434 -34.9 Q 433.4 -35.7 432.3 -35.7 L 432.3 -35.7 L 432.3 -35.7 Q 431.2 -35.7 430.3 -35.3 L 430.3 -35.3 L 430.3 -35.3 Q 429.4 -34.8 428.4 -33.4 L 428.4 -33.4 L 428.4 -33.4 Q 426.1 -30.2 424.7 -22.8 Z M 465.9 -23 L 465.9 -23 L 465.9 -23 Q 468.2 -27.1 468.2 -31.3 L 468.2 -31.3 L 468.2 -31.3 Q 468.2 -34 466.2 -34 L 466.2 -34 L 466.2 -34 Q 464.7 -34 463.1 -31.4 L 463.1 -31.4 L 463.1 -31.4 Q 461.4 -28.8 460.9 -25.4 L 460.9 -25.4 L 457.6 -5 L 444.4 -3.7 L 450.9 -37.7 L 461.4 -38.9 L 460.3 -32.5 L 460.3 -32.5 Q 463.4 -38.9 470.5 -38.9 L 470.5 -38.9 L 470.5 -38.9 Q 474.2 -38.9 476.2 -37 L 476.2 -37 L 476.2 -37 Q 478.2 -35.1 478.2 -31.2 L 478.2 -31.2 L 478.2 -31.2 Q 478.2 -27.2 475.6 -24.7 L 475.6 -24.7 L 475.6 -24.7 Q 473 -22.2 468.6 -22.2 L 468.6 -22.2 L 468.6 -22.2 Q 466.7 -22.2 465.9 -23 Z M 499.6 -12.3 L 499.6 -12.3 L 499.6 -12.3 Q 496.3 -8.8 490.2 -8.8 L 490.2 -8.8 L 490.2 -8.8 Q 482.6 -8.8 481 -14.4 L 481 -14.4 L 481 -14.4 Q 480.5 -16 480.5 -17.9 L 480.5 -17.9 L 480.5 -17.9 Q 480.5 -19.7 480.8 -21.7 L 480.8 -21.7 L 483.8 -37.7 L 496.8 -38.9 L 493.3 -20.3 L 493.3 -20.3 Q 493.2 -19.5 493 -18.6 L 493 -18.6 L 493 -18.6 Q 492.8 -17.7 492.8 -16.8 L 492.8 -16.8 L 492.8 -16.8 Q 492.8 -15.8 493.1 -15.2 L 493.1 -15.2 L 493.1 -15.2 Q 493.4 -14.6 493.9 -14.2 L 493.9 -14.2 L 493.9 -14.2 Q 494.7 -13.7 496 -13.7 L 496 -13.7 L 496 -13.7 Q 497.4 -13.7 498.6 -15.4 L 498.6 -15.4 L 498.6 -15.4 Q 499.8 -17.1 500.4 -19.9 L 500.4 -19.9 L 503.9 -37.7 L 516.5 -38.9 L 511.7 -13.8 L 511.7 -13.8 Q 509.3 -1.5 504.5 3.4 L 504.5 3.4 L 504.5 3.4 Q 502 5.9 498.7 6.8 L 498.7 6.8 L 498.7 6.8 Q 495.5 7.8 491.3 7.8 L 491.3 7.8 L 491.3 7.8 Q 484.6 7.8 480.8 5.7 L 480.8 5.7 L 480.8 5.7 Q 476.9 3.6 476.9 0.1 L 476.9 0.1 L 476.9 0.1 Q 476.9 -2.5 478.9 -4 L 478.9 -4 L 478.9 -4 Q 480.9 -5.5 484 -5.5 L 484 -5.5 L 484 -5.5 Q 486.7 -5.5 488.7 -4.4 L 488.7 -4.4 L 488.7 -4.4 Q 489.9 -3.7 490.5 -2.8 L 490.5 -2.8 L 490.5 -2.8 Q 489 -1.5 489 0.6 L 489 0.6 L 489 0.6 Q 489 3.4 491.6 3.4 L 491.6 3.4 L 491.6 3.4 Q 495.8 3.4 498.2 -6.3 L 498.2 -6.3 L 498.2 -6.3 Q 498.9 -9.2 499.6 -12.3 Z" fill="url(#editing-gradient-gradient)"></path></g></g><style>text {
  font-size: 64px;
  font-family: Arial Black;
  dominant-baseline: central;
  text-anchor: middle;
}</style></svg>